<svg width="619" height="602" viewBox="0 0 619 602" fill="none" xmlns="http://www.w3.org/2000/svg">
<g clip-path="url(#clip0_776_1982)">
<path d="M61.7656 85.9189H549.473V487.326C549.473 495.077 543.183 501.369 535.433 501.369H75.8059C68.0562 501.369 61.7656 495.077 61.7656 487.326V85.9189Z" fill="url(#paint0_linear_776_1982)" stroke="#6A3F94" stroke-miterlimit="10"/>
<mask id="mask0_776_1982" style="mask-type:luminance" maskUnits="userSpaceOnUse" x="61" y="405" width="489" height="97">
<path d="M61.7656 405.504H549.473V487.326C549.473 495.077 543.183 501.37 535.433 501.37H75.8059C68.0562 501.37 61.7656 495.077 61.7656 487.326V405.504Z" fill="white"/>
</mask>
<g mask="url(#mask0_776_1982)">
<path d="M400.18 436.719H108.166V454.847H400.18V436.719Z" fill="#6A3F94" stroke="#6A3F94" stroke-linejoin="round"/>
<path d="M400.18 436.719H108.166L128.141 431.592H380.217L400.18 436.719Z" fill="#E4CAEA" stroke="#6A3F94" stroke-linejoin="round"/>
<path d="M422.24 459.974H86.1182V478.102H422.24V459.974Z" fill="#6A3F94" stroke="#6A3F94" stroke-linejoin="round"/>
<path d="M422.24 459.974H86.1182L108.166 454.859H400.18L422.24 459.974Z" fill="#E4CAEA" stroke="#6A3F94" stroke-linejoin="round"/>
<path d="M446.581 483.242H61.7656V501.37H446.581V483.242Z" fill="#6A3F94" stroke="#6A3F94" stroke-linejoin="round"/>
<path d="M446.581 483.242H61.7656L86.1185 478.115H422.24L446.581 483.242Z" fill="#E4CAEA" stroke="#6A3F94" stroke-linejoin="round"/>
</g>
<path d="M576.659 209.393L549.522 258.994V202.451C559.357 202.451 568.603 204.966 576.659 209.393Z" fill="#56456B" stroke="#6A3F94" stroke-miterlimit="10"/>
<path d="M606.04 260.074C605.476 290.798 580.375 315.537 549.523 315.537C518.671 315.537 492.981 290.222 492.981 258.994C492.981 227.767 518.303 202.451 549.523 202.451V258.994L606.04 260.074Z" fill="black" stroke="#6A3F94" stroke-miterlimit="10"/>
<path d="M618.363 260.074L561.846 259.007L588.982 209.406C606.505 218.997 618.375 237.616 618.375 259.007C618.375 259.362 618.375 259.718 618.363 260.074Z" fill="#FF715D" stroke="#6A3F94" stroke-linejoin="round"/>
<path d="M578.069 209.394L549.522 259.007H561.846L588.995 209.394H578.069Z" fill="#E4CAEA" stroke="#6A3F94" stroke-miterlimit="10"/>
<path d="M331.781 418.48C331.634 418.517 331.499 418.431 331.462 418.284L319.187 374.178C311.989 348.335 325.601 321.891 349.512 315.231C354.429 313.857 359.42 313.428 364.3 313.845C383.086 315.427 400.217 329.496 405.931 350.015L418.205 394.122" stroke="#EDC4F7" stroke-linejoin="round"/>
<path d="M473.925 356.32L298.133 405.295L279.531 400.83L455.029 351.929L473.925 356.32Z" fill="#3A2A4C" stroke="#6A3F94" stroke-miterlimit="10"/>
<path d="M297.103 382.629L287.821 393.14C285.344 390.319 283.149 387.584 281.26 384.983C280.807 384.358 280.365 383.732 279.948 383.119L289.255 372.534C291.389 375.686 294.038 379.096 297.091 382.629H297.103Z" fill="#E4CAEA" stroke="#6A3F94" stroke-miterlimit="10"/>
<path d="M289.268 372.534L279.96 383.119C277.815 380.004 276.147 377.134 275.068 374.644C273.376 370.768 273.081 367.825 274.504 366.34L284.154 356.246C281.873 358.638 284.019 364.795 289.268 372.534Z" fill="black" stroke="#6A3F94" stroke-linejoin="round"/>
<path d="M344.338 413.831L334.687 423.926C330.592 428.218 313.805 418.799 297.177 402.891C293.768 399.628 290.629 396.341 287.833 393.152L297.116 382.641C300.009 385.965 303.283 389.399 306.84 392.809C323.467 408.717 340.254 418.136 344.35 413.844L344.338 413.831Z" fill="black" stroke="#6A3F94" stroke-linejoin="round"/>
<path d="M344.338 413.832C340.242 418.124 323.455 408.705 306.827 392.797C303.271 389.387 299.997 385.965 297.103 382.629C294.038 379.096 291.401 375.686 289.268 372.534C284.02 364.783 281.874 358.625 284.154 356.246C287.478 352.763 299.213 358.343 312.419 369.088C315.46 371.565 318.562 374.3 321.665 377.281C322.18 377.772 322.683 378.25 323.185 378.753C338.906 394.183 348.311 409.686 344.338 413.832Z" fill="url(#paint1_linear_776_1982)" stroke="#6A3F94" stroke-miterlimit="10"/>
<path d="M298.133 405.295L356.317 599.344L332.32 600.89C321.051 601.614 311.069 593.666 309.242 582.529L279.519 400.843L298.133 405.307V405.295Z" fill="#E4CAEA" stroke="#6A3F94" stroke-miterlimit="10"/>
<path d="M473.925 356.32L298.133 405.295L327.599 574.63C330.628 591.998 347.979 602.975 364.962 598.241L518.498 555.472C534.378 551.044 542.962 533.885 536.99 518.516L473.925 356.332V356.32Z" fill="white" stroke="#6A3F94" stroke-miterlimit="10"/>
<path d="M353.424 424.821C352.921 425.14 352.369 425.385 351.769 425.557C348.458 426.477 345.024 424.539 344.092 421.227C343.16 417.916 345.11 414.481 348.421 413.549C349.022 413.378 349.623 413.304 350.223 413.316C347.955 414.751 346.79 417.536 347.55 420.258C348.311 422.981 350.751 424.76 353.424 424.821Z" fill="#E4CAEA" stroke="#6A3F94" stroke-miterlimit="10"/>
<path d="M356.084 417.891C356.845 420.602 355.68 423.398 353.411 424.833C350.738 424.784 348.298 422.994 347.538 420.271C346.777 417.548 347.942 414.764 350.211 413.329C352.896 413.39 355.324 415.181 356.084 417.891Z" fill="black" stroke="#6A3F94" stroke-linejoin="round"/>
<path d="M440.155 400.659C439.652 400.977 439.1 401.223 438.5 401.394C435.189 402.314 431.755 400.376 430.823 397.065C429.904 393.753 431.841 390.319 435.152 389.387C435.753 389.215 436.354 389.141 436.954 389.154C434.686 390.589 433.521 393.373 434.281 396.096C435.042 398.819 437.482 400.597 440.155 400.659Z" fill="#E4CAEA" stroke="#6A3F94" stroke-miterlimit="10"/>
<path d="M442.829 393.717C443.589 396.427 442.424 399.224 440.155 400.659C437.482 400.61 435.042 398.819 434.282 396.096C433.521 393.373 434.686 390.589 436.955 389.154C439.64 389.215 442.068 391.006 442.829 393.717Z" fill="black" stroke="#6A3F94" stroke-linejoin="round"/>
<path d="M412.834 339.099L420.326 350.96C416.929 352.542 413.68 353.891 410.651 354.97C409.915 355.24 409.204 355.486 408.493 355.706L400.939 343.797C404.557 342.632 408.579 341.049 412.822 339.099H412.834Z" fill="#E4CAEA" stroke="#6A3F94" stroke-miterlimit="10"/>
<path d="M400.952 343.797L408.505 355.707C404.913 356.896 401.7 357.681 399.002 358.025C394.809 358.564 391.902 358.025 390.872 356.246L383.883 344.153C385.538 347.01 392.05 346.679 400.952 343.809V343.797Z" fill="black" stroke="#6A3F94" stroke-linejoin="round"/>
<path d="M456.01 302.475L462.999 314.569C465.967 319.696 452.233 333.187 432.307 344.705C428.211 347.059 424.189 349.157 420.339 350.96L412.847 339.099C416.844 337.247 421.062 335.076 425.33 332.611C445.256 321.106 458.99 307.614 456.022 302.475H456.01Z" fill="black" stroke="#6A3F94" stroke-linejoin="round"/>
<path d="M456.01 302.475C458.977 307.602 445.243 321.094 425.317 332.611C421.05 335.076 416.844 337.259 412.834 339.099C408.591 341.049 404.569 342.632 400.952 343.797C392.05 346.667 385.538 346.998 383.883 344.14C381.467 339.97 390.112 330.268 404.128 320.591C407.353 318.371 410.86 316.151 414.575 314.004C415.189 313.649 415.802 313.293 416.415 312.962C435.618 302.193 453.14 297.495 456.01 302.475Z" fill="url(#paint2_linear_776_1982)" stroke="#6A3F94" stroke-miterlimit="10"/>
<path d="M348.74 413.758C348.593 413.795 348.458 413.709 348.421 413.562L336.146 369.456C328.948 343.613 342.559 317.169 366.471 310.509C371.388 309.135 376.379 308.706 381.259 309.123C400.045 310.705 417.175 324.773 422.89 345.293L435.164 389.399" stroke="#EDC4F7" stroke-linejoin="round"/>
<path d="M77.7802 312.962L50.2023 388.173L18.5166 402.867L46.0822 327.656L77.7802 312.962Z" fill="#402F54" stroke="#6A3F94" stroke-linejoin="round"/>
<path d="M125.395 415.745L93.6967 430.439L18.5166 402.866L50.2023 388.172L125.395 415.745Z" fill="#402F54" stroke="#6A3F94" stroke-linejoin="round"/>
<path d="M61.925 320.309L34.3594 395.519L109.552 423.092" stroke="#6A3F94" stroke-miterlimit="10"/>
<path d="M106.119 323.351C106.119 323.351 94.4942 284.69 78.3938 296.158C65.4203 305.406 86.4746 327.496 104.562 327.582" stroke="#6A3F94" stroke-miterlimit="10"/>
<path d="M103.777 322.492C103.777 322.492 89.1973 306.559 93.1948 296.6C94.9974 292.111 99.9636 289.609 104.648 290.847C107.48 291.596 110.607 293.767 112.606 299.163" stroke="#6A3F94" stroke-miterlimit="10"/>
<path d="M107.896 324.013C107.896 324.013 143.408 302.634 148.264 321.805C152.188 337.247 121.851 340.485 107.995 328.858" stroke="#6A3F94" stroke-miterlimit="10"/>
<path d="M110.704 325.031C110.704 325.031 133.316 322.749 136.7 312.557C138.233 307.957 136.05 302.843 131.685 300.758C129.036 299.494 125.247 299.126 120.244 301.96" stroke="#6A3F94" stroke-miterlimit="10"/>
<path d="M77.7786 312.971L50.2041 388.178L125.392 415.759L152.967 340.552L77.7786 312.971Z" fill="#E4CAEA" stroke="#6A3F94" stroke-miterlimit="10"/>
<path d="M115.376 326.748L87.798 401.959L56.4434 416.493" stroke="#6A3F94" stroke-miterlimit="10"/>
<path d="M74.592 56.7764H536.659C543.735 56.7764 549.473 62.5165 549.473 69.5936V85.9187H61.7656V69.5936C61.7656 62.5165 67.5044 56.7764 74.5797 56.7764H74.592Z" fill="black" stroke="#6A3F94" stroke-miterlimit="10"/>
<path d="M81.0786 76.0082C83.6521 76.0082 85.7383 73.9214 85.7383 71.3473C85.7383 68.7732 83.6521 66.6865 81.0786 66.6865C78.5052 66.6865 76.4189 68.7732 76.4189 71.3473C76.4189 73.9214 78.5052 76.0082 81.0786 76.0082Z" fill="#6A3F94" stroke="#6A3F94" stroke-miterlimit="10"/>
<path d="M97.2651 76.0082C99.8386 76.0082 101.925 73.9214 101.925 71.3473C101.925 68.7732 99.8386 66.6865 97.2651 66.6865C94.6917 66.6865 92.6055 68.7732 92.6055 71.3473C92.6055 73.9214 94.6917 76.0082 97.2651 76.0082Z" fill="#FF715D"/>
<path d="M113.451 76.0082C116.024 76.0082 118.11 73.9214 118.11 71.3473C118.11 68.7732 116.024 66.6865 113.451 66.6865C110.877 66.6865 108.791 68.7732 108.791 71.3473C108.791 73.9214 110.877 76.0082 113.451 76.0082Z" fill="white"/>
<path d="M203.886 403.75L214.333 412.568C211.905 415.389 209.526 417.928 207.258 420.124C206.706 420.651 206.166 421.166 205.627 421.657L195.118 412.814C197.877 410.311 200.845 407.257 203.886 403.762V403.75Z" fill="#6A3F94" stroke="#6A3F94" stroke-miterlimit="10"/>
<path d="M195.118 412.801L205.627 421.645C202.905 424.159 200.366 426.134 198.135 427.471C194.664 429.568 191.967 430.12 190.483 428.759L180.403 419.51C182.794 421.694 188.337 418.934 195.118 412.789V412.801Z" fill="black" stroke="#6A3F94" stroke-linejoin="round"/>
<path d="M229.256 351.695L239.336 360.943C243.616 364.856 236.148 383.229 222.659 401.971C219.888 405.81 217.08 409.379 214.333 412.58L203.886 403.762C206.755 400.45 209.686 396.746 212.58 392.723C226.08 373.981 233.548 355.62 229.256 351.695Z" fill="black" stroke="#6A3F94" stroke-linejoin="round"/>
<path d="M229.256 351.695C233.536 355.62 226.068 373.981 212.58 392.723C209.686 396.734 206.755 400.45 203.886 403.762C200.845 407.257 197.877 410.311 195.118 412.813C188.337 418.958 182.782 421.73 180.404 419.535C176.921 416.346 181.213 403.602 190.189 388.884C192.249 385.499 194.566 382.015 197.08 378.52C197.497 377.943 197.902 377.367 198.331 376.802C211.452 359.055 225.112 347.893 229.256 351.695Z" fill="url(#paint3_linear_776_1982)" stroke="#6A3F94" stroke-miterlimit="10"/>
<path d="M608.553 80.2397L596.094 80.5709L599.847 68.6858C599.933 68.416 599.822 68.1093 599.565 67.9622C599.319 67.815 599.001 67.864 598.804 68.0725L590.233 77.1121L584.482 66.061C584.347 65.8035 584.053 65.6808 583.783 65.7421C583.513 65.8035 583.317 66.0733 583.317 66.3554L583.648 78.8169L571.766 75.0638C571.496 74.9779 571.19 75.0883 571.043 75.3459C570.896 75.5912 570.945 75.9101 571.153 76.1063L580.19 84.6798L569.142 90.4322C568.885 90.5671 568.762 90.8615 568.823 91.1313C568.884 91.4012 569.154 91.5974 569.436 91.5974L581.895 91.2662L578.143 103.151C578.057 103.421 578.167 103.728 578.425 103.875C578.67 104.022 578.989 103.973 579.185 103.765L587.756 94.725L593.507 105.776C593.642 106.034 593.936 106.156 594.206 106.095C594.476 106.034 594.672 105.764 594.672 105.482L594.341 93.0202L606.223 96.7734C606.493 96.8592 606.799 96.7488 606.947 96.4913C607.094 96.246 607.045 95.927 606.836 95.7308L597.799 87.1574L608.847 81.4049C609.105 81.27 609.227 80.9756 609.166 80.7058C609.105 80.436 608.835 80.2397 608.553 80.2397Z" fill="#FCF3F1"/>
<path d="M26.6464 262.048L18.2958 262.269L20.8095 254.296C20.8709 254.112 20.785 253.916 20.6256 253.818C20.4539 253.72 20.2455 253.745 20.1106 253.892L14.3596 259.951L10.5092 252.543C10.4234 252.371 10.2272 252.285 10.031 252.334C9.8348 252.383 9.71218 252.555 9.72444 252.751L9.94516 261.104L1.97468 258.589C1.79074 258.528 1.59455 258.614 1.49645 258.773C1.39835 258.945 1.42287 259.154 1.57002 259.288L7.62759 265.041L0.22117 268.892C0.0494978 268.978 -0.0363382 269.174 0.0127109 269.371C0.0617601 269.567 0.233432 269.689 0.429629 269.677L8.78024 269.456L6.26647 277.429C6.20516 277.613 6.291 277.809 6.45041 277.907C6.62208 278.005 6.83054 277.981 6.96542 277.834L12.7164 271.775L16.5668 279.183C16.6526 279.354 16.8488 279.44 17.045 279.391C17.2412 279.342 17.3638 279.171 17.3516 278.974L17.1309 270.622L25.1013 273.136C25.2853 273.197 25.4815 273.111 25.5796 272.952C25.6777 272.78 25.6531 272.572 25.506 272.437L19.4484 266.684L26.8548 262.833C27.0265 262.747 27.1124 262.551 27.0633 262.355C27.0143 262.159 26.8426 262.036 26.6464 262.048Z" fill="#FCF3F1"/>
<path d="M99.791 131.595C91.1339 132.085 90.7415 132.478 90.251 141.137C89.7605 132.478 89.3681 132.085 80.7109 131.595C89.3681 131.104 89.7605 130.712 90.251 122.052C90.7415 130.712 91.1339 131.104 99.791 131.595Z" fill="white"/>
<path d="M110.937 241.357C111.01 241.357 124.781 242.167 147.552 242.167C185.123 242.167 247.195 239.983 312.7 228.356C345.453 222.542 379.076 214.361 410.946 202.868C442.815 191.376 472.944 176.584 498.67 157.45C500.84 155.831 501.294 152.765 499.675 150.581C498.057 148.411 494.991 147.957 492.809 149.576C468.088 167.961 438.806 182.385 407.61 193.633C360.817 210.51 309.733 220.212 263.394 225.67C217.054 231.128 175.449 232.354 147.552 232.354C136.283 232.354 127.258 232.158 121.053 231.962C117.951 231.864 115.56 231.766 113.941 231.692C113.132 231.655 112.518 231.618 112.114 231.606C111.905 231.606 111.758 231.582 111.66 231.582H111.513C108.803 231.41 106.485 233.483 106.326 236.181C106.167 238.892 108.227 241.21 110.937 241.369V241.357Z" fill="#56456B"/>
<path d="M111.391 223.45C111.661 223.437 182.966 220.984 267.171 194.393C309.28 181.085 354.625 161.743 395.913 133.52C437.2 105.31 474.452 68.1953 500.081 19.4529C501.344 17.0489 500.424 14.093 498.021 12.8297C495.617 11.5664 492.662 12.4863 491.399 14.8903C466.641 61.9522 430.639 97.9018 390.382 125.413C330.015 166.686 260.096 188.825 205.295 200.55C177.901 206.413 154.284 209.7 137.559 211.503C129.196 212.411 122.537 212.938 118 213.257C115.732 213.416 113.978 213.515 112.813 213.564C112.225 213.588 111.783 213.613 111.489 213.625C111.342 213.625 111.231 213.625 111.158 213.637H111.06C108.35 213.735 106.228 216.004 106.327 218.715C106.425 221.426 108.693 223.548 111.403 223.45H111.391Z" fill="url(#paint4_linear_776_1982)"/>
<path d="M495.74 33.8036C504.923 33.8036 512.368 26.3573 512.368 17.1718C512.368 7.98633 504.923 0.540039 495.74 0.540039C486.557 0.540039 479.112 7.98633 479.112 17.1718C479.112 26.3573 486.557 33.8036 495.74 33.8036Z" fill="white"/>
<path d="M495.74 170.145C504.923 170.145 512.368 162.699 512.368 153.513C512.368 144.328 504.923 136.881 495.74 136.881C486.557 136.881 479.112 144.328 479.112 153.513C479.112 162.699 486.557 170.145 495.74 170.145Z" fill="white"/>
<path d="M496.757 153.415L499.786 157.671H497.567L495.703 154.923L493.839 157.671H491.681L494.685 153.452L491.767 149.355H493.986L495.752 151.943L497.579 149.355H499.614L496.757 153.415Z" fill="black"/>
<path d="M489.891 13.2593V21.0845H488.235V14.866H486.433V13.2593H489.891Z" fill="#FF715D"/>
<path d="M491.056 18.0672V16.2642C491.056 15.3197 491.35 14.5593 491.951 13.9583C492.552 13.3696 493.3 13.0752 494.219 13.0752C495.139 13.0752 495.887 13.3696 496.5 13.9583C497.113 14.547 497.408 15.3075 497.408 16.2519V18.0672C497.408 18.9993 497.101 19.7721 496.488 20.3608C495.875 20.9618 495.114 21.2562 494.195 21.2562C493.275 21.2562 492.539 20.9618 491.951 20.3608C491.362 19.7598 491.056 18.9993 491.056 18.0672ZM492.711 16.2764V18.0794C492.711 18.5578 492.846 18.9257 493.128 19.1956C493.41 19.4654 493.766 19.6003 494.195 19.6003C494.624 19.6003 495.016 19.4654 495.298 19.1833C495.58 18.9012 495.728 18.5333 495.728 18.0672V16.2519C495.728 15.7858 495.58 15.4179 495.298 15.1358C495.016 14.8537 494.649 14.7187 494.207 14.7187C493.766 14.7187 493.398 14.8537 493.116 15.1358C492.834 15.4179 492.699 15.7858 492.699 16.2642L492.711 16.2764Z" fill="#FF715D"/>
<path d="M502.19 17.0738L505.034 21.0845H502.95L501.196 18.5088L499.443 21.0845H497.407L500.228 17.1106L497.481 13.2593H499.565L501.221 15.7001L502.937 13.2593H504.85L502.165 17.0738H502.19Z" fill="#FF715D"/>
<path d="M113.598 157.757C113.304 157.18 112.887 156.751 112.359 156.457C111.832 156.162 111.219 156.015 110.532 156.015C109.772 156.015 109.098 156.187 108.509 156.53C107.92 156.874 107.454 157.352 107.111 157.977C106.768 158.603 106.608 159.327 106.608 160.148C106.608 160.97 106.78 161.706 107.111 162.332C107.442 162.957 107.908 163.448 108.509 163.791C109.11 164.135 109.784 164.306 110.532 164.306C111.55 164.306 112.384 164.024 113.022 163.448C113.659 162.871 114.052 162.099 114.186 161.117H109.882V159.621H116.197V161.093C116.075 161.988 115.756 162.798 115.253 163.546C114.738 164.294 114.076 164.895 113.254 165.337C112.433 165.778 111.526 165.999 110.532 165.999C109.453 165.999 108.472 165.754 107.577 165.251C106.682 164.748 105.983 164.061 105.456 163.166C104.928 162.27 104.671 161.265 104.671 160.148C104.671 159.032 104.928 158.027 105.456 157.131C105.983 156.236 106.682 155.549 107.577 155.046C108.472 154.543 109.453 154.298 110.52 154.298C111.734 154.298 112.825 154.592 113.77 155.193C114.714 155.794 115.413 156.641 115.842 157.744H113.586L113.598 157.757Z" fill="white"/>
<path d="M121.016 157.07C121.47 156.812 122.01 156.677 122.635 156.677V158.627H122.157C121.421 158.627 120.857 158.811 120.489 159.192C120.109 159.56 119.925 160.21 119.925 161.142V165.925H118.049V156.837H119.925V158.161C120.195 157.695 120.563 157.34 121.016 157.082V157.07Z" fill="white"/>
<path d="M125.995 165.484C125.308 165.091 124.756 164.539 124.364 163.84C123.972 163.129 123.775 162.307 123.775 161.375C123.775 160.443 123.984 159.633 124.389 158.922C124.793 158.21 125.345 157.658 126.056 157.278C126.767 156.898 127.54 156.702 128.411 156.702C129.281 156.702 130.066 156.898 130.765 157.278C131.464 157.658 132.028 158.21 132.433 158.922C132.837 159.633 133.046 160.455 133.046 161.375C133.046 162.295 132.837 163.116 132.42 163.828C132.003 164.539 131.439 165.091 130.716 165.484C129.992 165.876 129.208 166.072 128.337 166.072C127.466 166.072 126.706 165.876 126.019 165.484H125.995ZM129.674 164.085C130.09 163.852 130.434 163.509 130.704 163.043C130.961 162.577 131.096 162.025 131.096 161.362C131.096 160.7 130.973 160.148 130.716 159.694C130.458 159.241 130.127 158.897 129.71 158.664C129.293 158.431 128.84 158.321 128.361 158.321C127.883 158.321 127.43 158.431 127.013 158.664C126.596 158.897 126.277 159.241 126.032 159.694C125.786 160.148 125.664 160.712 125.664 161.362C125.664 162.344 125.909 163.092 126.412 163.632C126.915 164.159 127.54 164.429 128.3 164.429C128.778 164.429 129.232 164.318 129.661 164.085H129.674Z" fill="white"/>
<path d="M147.087 156.836L144.266 165.925H142.292L140.465 159.216L138.638 165.925H136.664L133.831 156.836H135.744L137.645 164.134L139.57 156.836H141.532L143.383 164.11L145.26 156.836H147.099H147.087Z" fill="white"/>
<path d="M150.679 158.37V163.398C150.679 163.742 150.753 163.987 150.912 164.134C151.072 164.281 151.342 164.355 151.734 164.355H152.887V165.925H151.403C150.557 165.925 149.907 165.729 149.453 165.336C148.999 164.944 148.779 164.294 148.779 163.411V158.382H147.712V156.849H148.779V154.592H150.679V156.849H152.887V158.382H150.679V158.37Z" fill="white"/>
<path d="M161.163 157.131C161.703 157.425 162.132 157.867 162.451 158.456C162.757 159.032 162.917 159.743 162.917 160.565V165.925H161.053V160.847C161.053 160.038 160.844 159.412 160.44 158.971C160.035 158.541 159.483 158.321 158.772 158.321C158.061 158.321 157.509 158.541 157.104 158.971C156.7 159.4 156.491 160.026 156.491 160.847V165.925H154.615V153.721H156.491V157.891C156.81 157.511 157.215 157.205 157.705 156.996C158.196 156.788 158.723 156.689 159.312 156.689C159.998 156.689 160.624 156.837 161.163 157.131Z" fill="white"/>
<path d="M176.503 163.57H171.708L170.887 165.913H168.925L173.033 154.445H175.203L179.311 165.913H177.337L176.515 163.57H176.503ZM175.976 162.037L174.112 156.714L172.236 162.037H175.976Z" fill="white"/>
<path d="M184.891 158.37H183.211V165.925H181.323V158.37H180.256V156.837H181.323V156.199C181.323 155.156 181.605 154.396 182.157 153.917C182.708 153.439 183.579 153.206 184.768 153.206V154.776C184.192 154.776 183.8 154.886 183.567 155.095C183.334 155.303 183.223 155.684 183.223 156.211V156.849H184.903V158.382L184.891 158.37Z" fill="white"/>
<path d="M188.741 158.37V163.398C188.741 163.742 188.814 163.987 188.974 164.134C189.133 164.281 189.403 164.355 189.795 164.355H190.948V165.925H189.464C188.618 165.925 187.968 165.729 187.515 165.336C187.061 164.944 186.84 164.294 186.84 163.411V158.382H185.773V156.849H186.84V154.592H188.741V156.849H190.948V158.382H188.741V158.37Z" fill="white"/>
<path d="M200.942 162.074H194.001C194.051 162.798 194.32 163.386 194.811 163.816C195.289 164.257 195.89 164.478 196.589 164.478C197.594 164.478 198.318 164.061 198.735 163.215H200.758C200.488 164.049 199.985 164.736 199.262 165.263C198.539 165.79 197.656 166.06 196.589 166.06C195.718 166.06 194.946 165.864 194.259 165.471C193.572 165.079 193.033 164.527 192.64 163.828C192.248 163.117 192.052 162.295 192.052 161.363C192.052 160.43 192.236 159.609 192.616 158.897C192.996 158.186 193.523 157.646 194.21 157.254C194.897 156.873 195.681 156.677 196.577 156.677C197.472 156.677 198.195 156.861 198.87 157.241C199.544 157.609 200.059 158.137 200.439 158.811C200.807 159.486 201.003 160.271 201.003 161.142C201.003 161.485 200.979 161.792 200.942 162.062V162.074ZM199.041 160.553C199.041 159.866 198.784 159.302 198.306 158.885C197.827 158.468 197.226 158.259 196.515 158.259C195.865 158.259 195.314 158.468 194.848 158.873C194.382 159.277 194.112 159.842 194.026 160.541H199.054L199.041 160.553Z" fill="white"/>
<path d="M205.823 157.07C206.277 156.812 206.816 156.677 207.442 156.677V158.627H206.963C206.228 158.627 205.664 158.811 205.296 159.192C204.916 159.56 204.732 160.21 204.732 161.142V165.925H202.855V156.837H204.732V158.161C205.001 157.695 205.369 157.34 205.823 157.082V157.07Z" fill="white"/>
<path d="M112.249 174.94C113.169 175.406 113.88 176.081 114.37 176.952C114.873 177.823 115.118 178.841 115.118 180.006C115.118 181.171 114.873 182.177 114.37 183.035C113.868 183.894 113.156 184.544 112.249 185.01C111.342 185.476 110.263 185.697 109.049 185.697H105.309V174.241H109.049C110.275 174.241 111.342 174.474 112.249 174.94ZM112.126 183.072C112.838 182.349 113.193 181.331 113.193 180.006C113.193 178.681 112.838 177.639 112.126 176.891C111.415 176.142 110.385 175.774 109.049 175.774H107.185V184.164H109.049C110.385 184.164 111.415 183.796 112.126 183.072Z" fill="white"/>
<path d="M117.779 183.146C118.834 182.238 119.668 181.49 120.281 180.901C120.894 180.312 121.397 179.699 121.801 179.061C122.206 178.424 122.414 177.786 122.414 177.148C122.414 176.51 122.255 175.971 121.948 175.603C121.63 175.235 121.139 175.038 120.477 175.038C119.815 175.038 119.324 175.247 118.969 175.652C118.613 176.069 118.417 176.621 118.405 177.307H116.59C116.627 176.056 116.994 175.1 117.718 174.425C118.441 173.763 119.349 173.432 120.465 173.432C121.666 173.432 122.598 173.763 123.273 174.425C123.947 175.087 124.291 175.958 124.291 177.062C124.291 177.859 124.094 178.62 123.69 179.344C123.285 180.079 122.807 180.729 122.255 181.306C121.703 181.882 120.992 182.545 120.134 183.305L119.398 183.968H124.622V185.537H116.614V184.164L117.804 183.146H117.779Z" fill="white"/>
<path d="M126.657 176.927C127.185 176.032 127.884 175.345 128.779 174.842C129.674 174.339 130.655 174.094 131.722 174.094C132.936 174.094 134.027 174.388 134.971 174.989C135.915 175.59 136.614 176.436 137.044 177.54H134.787C134.493 176.939 134.076 176.485 133.549 176.191C133.022 175.897 132.408 175.75 131.722 175.75C130.961 175.75 130.287 175.921 129.698 176.265C129.11 176.608 128.644 177.099 128.301 177.737C127.969 178.374 127.798 179.11 127.798 179.957C127.798 180.803 127.969 181.539 128.301 182.177C128.632 182.814 129.098 183.305 129.698 183.648C130.299 183.992 130.974 184.164 131.722 184.164C132.408 184.164 133.022 184.016 133.549 183.722C134.076 183.428 134.493 182.974 134.787 182.373H137.044C136.614 183.477 135.928 184.323 134.971 184.912C134.015 185.501 132.936 185.807 131.722 185.807C130.643 185.807 129.662 185.562 128.767 185.059C127.871 184.556 127.172 183.869 126.645 182.974C126.118 182.078 125.86 181.073 125.86 179.957C125.86 178.84 126.118 177.835 126.645 176.939L126.657 176.927Z" fill="white"/>
<path d="M139.14 185.464C138.907 185.231 138.797 184.949 138.797 184.605C138.797 184.262 138.907 183.98 139.14 183.747C139.373 183.514 139.655 183.403 139.999 183.403C140.342 183.403 140.612 183.514 140.845 183.747C141.078 183.98 141.188 184.262 141.188 184.605C141.188 184.949 141.078 185.231 140.845 185.464C140.612 185.697 140.33 185.807 139.999 185.807C139.667 185.807 139.373 185.697 139.14 185.464Z" fill="white"/>
<path d="M148.472 179.969L152.028 185.685H149.919L147.332 181.527L144.904 185.685H142.807L146.363 179.969L142.782 174.229H144.891L147.491 178.411L149.931 174.229H152.028L148.447 179.969H148.472Z" fill="white"/>
<path d="M165.97 179.295C165.7 179.81 165.259 180.227 164.646 180.558C164.045 180.877 163.273 181.048 162.328 181.048H160.256V185.697H158.38V174.241H162.341C163.223 174.241 163.959 174.388 164.572 174.695C165.185 175.002 165.639 175.406 165.946 175.922C166.252 176.437 166.399 177.013 166.399 177.651C166.399 178.24 166.265 178.779 165.983 179.295H165.97ZM163.922 179.025C164.278 178.706 164.45 178.24 164.45 177.651C164.45 176.4 163.739 175.774 162.328 175.774H160.256V179.515H162.328C163.04 179.515 163.579 179.356 163.922 179.025Z" fill="white"/>
<path d="M171.157 176.853C171.611 176.596 172.15 176.461 172.776 176.461V178.411H172.297C171.562 178.411 170.998 178.595 170.63 178.975C170.25 179.343 170.066 179.993 170.066 180.926V185.709H168.189V176.62H170.066V177.945C170.335 177.479 170.703 177.123 171.157 176.866V176.853Z" fill="white"/>
<path d="M176.124 185.256C175.437 184.863 174.885 184.311 174.493 183.612C174.1 182.901 173.904 182.079 173.904 181.147C173.904 180.215 174.113 179.405 174.517 178.694C174.922 177.982 175.474 177.43 176.185 177.05C176.896 176.67 177.669 176.474 178.539 176.474C179.41 176.474 180.195 176.67 180.894 177.05C181.593 177.43 182.157 177.982 182.561 178.694C182.966 179.405 183.175 180.227 183.175 181.147C183.175 182.067 182.966 182.888 182.549 183.6C182.132 184.311 181.568 184.863 180.845 185.256C180.121 185.648 179.336 185.844 178.466 185.844C177.595 185.844 176.835 185.648 176.148 185.256H176.124ZM179.802 183.87C180.219 183.637 180.563 183.293 180.832 182.827C181.09 182.361 181.225 181.809 181.225 181.147C181.225 180.484 181.102 179.932 180.845 179.479C180.587 179.025 180.256 178.681 179.839 178.448C179.422 178.215 178.969 178.105 178.49 178.105C178.012 178.105 177.558 178.215 177.142 178.448C176.725 178.681 176.406 179.025 176.161 179.479C175.915 179.932 175.793 180.497 175.793 181.147C175.793 182.128 176.038 182.876 176.541 183.416C177.043 183.943 177.669 184.213 178.429 184.213C178.907 184.213 179.361 184.103 179.79 183.87H179.802Z" fill="white"/>
<path d="M190.543 176.878C191.083 177.16 191.512 177.504 191.819 177.921V176.596H193.719V185.832C193.719 186.666 193.548 187.414 193.192 188.064C192.836 188.714 192.334 189.229 191.671 189.609C191.009 189.977 190.212 190.174 189.292 190.174C188.066 190.174 187.036 189.879 186.227 189.303C185.418 188.726 184.952 187.941 184.841 186.948H186.705C186.852 187.426 187.159 187.806 187.625 188.089C188.091 188.371 188.643 188.53 189.292 188.53C190.053 188.53 190.666 188.297 191.132 187.843C191.598 187.377 191.831 186.715 191.831 185.832V184.311C191.512 184.74 191.083 185.096 190.543 185.39C190.004 185.685 189.378 185.832 188.692 185.832C187.907 185.832 187.183 185.635 186.521 185.231C185.871 184.826 185.356 184.274 184.976 183.55C184.596 182.827 184.412 182.017 184.412 181.097C184.412 180.177 184.596 179.38 184.976 178.669C185.356 177.97 185.871 177.418 186.521 177.025C187.171 176.633 187.895 176.437 188.692 176.437C189.391 176.437 190.016 176.571 190.568 176.854L190.543 176.878ZM191.438 179.515C191.181 179.049 190.838 178.706 190.421 178.46C190.004 178.215 189.55 178.092 189.072 178.092C188.594 178.092 188.14 178.215 187.723 178.448C187.306 178.681 186.963 179.037 186.705 179.491C186.448 179.944 186.313 180.484 186.313 181.11C186.313 181.735 186.448 182.287 186.705 182.753C186.963 183.231 187.306 183.587 187.723 183.833C188.14 184.078 188.594 184.2 189.072 184.2C189.55 184.2 190.004 184.078 190.421 183.833C190.838 183.587 191.181 183.232 191.438 182.765C191.696 182.299 191.831 181.747 191.831 181.122C191.831 180.496 191.696 179.957 191.438 179.491V179.515Z" fill="white"/>
<path d="M199.164 176.853C199.617 176.596 200.157 176.461 200.782 176.461V178.411H200.304C199.568 178.411 199.004 178.595 198.636 178.975C198.256 179.343 198.072 179.993 198.072 180.926V185.709H196.196V176.62H198.072V177.945C198.342 177.479 198.71 177.123 199.164 176.866V176.853Z" fill="white"/>
<path d="M202.463 178.693C202.843 177.994 203.358 177.442 204.008 177.05C204.657 176.657 205.381 176.461 206.178 176.461C206.889 176.461 207.515 176.596 208.054 176.878C208.594 177.16 209.011 177.503 209.329 177.921V176.596H211.23V185.684H209.329V184.335C209.011 184.765 208.581 185.12 208.03 185.402C207.478 185.684 206.852 185.832 206.153 185.832C205.369 185.832 204.657 185.635 204.008 185.231C203.358 184.826 202.843 184.274 202.463 183.55C202.082 182.827 201.898 182.017 201.898 181.097C201.898 180.177 202.082 179.38 202.463 178.669V178.693ZM208.937 179.515C208.679 179.049 208.336 178.705 207.919 178.46C207.502 178.215 207.049 178.092 206.57 178.092C206.092 178.092 205.638 178.215 205.222 178.448C204.805 178.681 204.461 179.037 204.204 179.49C203.946 179.944 203.811 180.484 203.811 181.109C203.811 181.735 203.946 182.287 204.204 182.753C204.461 183.231 204.805 183.587 205.222 183.832C205.638 184.078 206.092 184.2 206.57 184.2C207.049 184.2 207.502 184.078 207.919 183.832C208.336 183.587 208.679 183.231 208.937 182.765C209.195 182.299 209.329 181.747 209.329 181.122C209.329 180.496 209.195 179.957 208.937 179.49V179.515Z" fill="white"/>
<path d="M226.607 176.915C227.171 177.21 227.612 177.651 227.944 178.24C228.262 178.816 228.434 179.528 228.434 180.349V185.709H226.57V180.632C226.57 179.822 226.362 179.196 225.957 178.755C225.552 178.313 225.001 178.105 224.289 178.105C223.578 178.105 223.026 178.326 222.622 178.755C222.217 179.184 222.009 179.81 222.009 180.632V185.709H220.145V180.632C220.145 179.822 219.936 179.196 219.532 178.755C219.127 178.326 218.575 178.105 217.864 178.105C217.153 178.105 216.601 178.326 216.196 178.755C215.792 179.184 215.583 179.81 215.583 180.632V185.709H213.707V176.621H215.583V177.663C215.89 177.295 216.282 177.001 216.748 176.792C217.214 176.584 217.729 176.486 218.269 176.486C218.992 176.486 219.642 176.645 220.218 176.952C220.795 177.259 221.224 177.7 221.543 178.289C221.812 177.737 222.242 177.308 222.83 176.976C223.406 176.658 224.044 176.486 224.706 176.486C225.418 176.486 226.055 176.633 226.631 176.927L226.607 176.915Z" fill="white"/>
<path d="M114.248 268.23L111.612 263.643H110.177V268.23H108.301V256.774H112.262C113.144 256.774 113.88 256.934 114.493 257.24C115.106 257.547 115.56 257.964 115.867 258.479C116.173 258.994 116.32 259.571 116.32 260.209C116.32 260.957 116.1 261.631 115.67 262.245C115.241 262.858 114.567 263.275 113.672 263.484L116.504 268.23H114.26H114.248ZM110.177 262.147H112.249C112.948 262.147 113.488 261.975 113.843 261.619C114.199 261.264 114.383 260.797 114.383 260.196C114.383 259.595 114.211 259.142 113.856 258.798C113.5 258.467 112.973 258.295 112.262 258.295H110.189V262.134L110.177 262.147Z" fill="white"/>
<path d="M126.964 264.391H120.024C120.073 265.115 120.343 265.704 120.833 266.133C121.311 266.575 121.912 266.795 122.611 266.795C123.617 266.795 124.34 266.378 124.757 265.532H126.78C126.511 266.366 126.008 267.053 125.284 267.58C124.561 268.108 123.678 268.378 122.611 268.378C121.741 268.378 120.968 268.181 120.281 267.789C119.595 267.396 119.055 266.844 118.663 266.145C118.27 265.434 118.074 264.612 118.074 263.68C118.074 262.748 118.258 261.926 118.638 261.215C119.018 260.503 119.546 259.964 120.232 259.571C120.919 259.191 121.704 258.995 122.599 258.995C123.494 258.995 124.218 259.179 124.892 259.559C125.566 259.927 126.081 260.454 126.462 261.129C126.829 261.803 127.026 262.588 127.026 263.459C127.026 263.803 127.001 264.109 126.964 264.379V264.391ZM125.076 262.87C125.076 262.184 124.818 261.619 124.34 261.202C123.862 260.785 123.261 260.577 122.55 260.577C121.9 260.577 121.348 260.785 120.882 261.19C120.416 261.595 120.147 262.159 120.061 262.858H125.088L125.076 262.87Z" fill="white"/>
<path d="M134.408 259.411C134.947 259.693 135.376 260.037 135.683 260.454V259.129H137.583V268.365C137.583 269.199 137.412 269.947 137.056 270.597C136.701 271.247 136.198 271.762 135.536 272.143C134.873 272.511 134.076 272.707 133.157 272.707C131.931 272.707 130.9 272.413 130.091 271.836C129.282 271.26 128.816 270.475 128.706 269.481H130.569C130.717 269.959 131.023 270.34 131.489 270.622C131.955 270.904 132.507 271.063 133.157 271.063C133.917 271.063 134.53 270.83 134.996 270.376C135.462 269.91 135.695 269.248 135.695 268.365V266.844C135.376 267.273 134.947 267.629 134.408 267.923C133.868 268.218 133.243 268.365 132.556 268.365C131.771 268.365 131.048 268.169 130.385 267.764C129.736 267.359 129.221 266.807 128.84 266.084C128.46 265.36 128.276 264.55 128.276 263.631C128.276 262.711 128.46 261.913 128.84 261.202C129.221 260.503 129.736 259.951 130.385 259.558C131.035 259.166 131.759 258.97 132.556 258.97C133.255 258.97 133.88 259.105 134.432 259.387L134.408 259.411ZM135.303 262.048C135.045 261.582 134.702 261.239 134.285 260.994C133.868 260.748 133.414 260.626 132.936 260.626C132.458 260.626 132.004 260.748 131.587 260.981C131.17 261.214 130.827 261.57 130.569 262.024C130.312 262.478 130.177 263.017 130.177 263.643C130.177 264.268 130.312 264.82 130.569 265.286C130.827 265.765 131.17 266.12 131.587 266.366C132.004 266.611 132.458 266.734 132.936 266.734C133.414 266.734 133.868 266.611 134.285 266.366C134.702 266.12 135.045 265.765 135.303 265.299C135.56 264.833 135.695 264.281 135.695 263.655C135.695 263.03 135.56 262.49 135.303 262.024V262.048Z" fill="white"/>
<path d="M148.276 259.142V268.23H146.4V267.163C146.105 267.531 145.713 267.825 145.235 268.046C144.756 268.255 144.254 268.365 143.714 268.365C143.003 268.365 142.365 268.218 141.789 267.924C141.225 267.629 140.783 267.188 140.452 266.599C140.134 266.022 139.962 265.311 139.962 264.489V259.154H141.826V264.219C141.826 265.029 142.034 265.654 142.439 266.096C142.844 266.525 143.395 266.746 144.107 266.746C144.818 266.746 145.37 266.525 145.774 266.096C146.191 265.667 146.387 265.041 146.387 264.219V259.154H148.263L148.276 259.142Z" fill="white"/>
<path d="M152.629 256.026V268.23H150.753V256.026H152.629Z" fill="white"/>
<path d="M155.045 261.214C155.425 260.515 155.94 259.963 156.59 259.571C157.239 259.178 157.963 258.982 158.76 258.982C159.471 258.982 160.097 259.117 160.636 259.399C161.176 259.681 161.593 260.024 161.911 260.441V259.117H163.812V268.205H161.911V266.856C161.593 267.286 161.163 267.641 160.612 267.923C160.06 268.205 159.434 268.353 158.735 268.353C157.951 268.353 157.239 268.156 156.59 267.752C155.94 267.347 155.425 266.795 155.045 266.071C154.664 265.348 154.48 264.538 154.48 263.618C154.48 262.698 154.664 261.901 155.045 261.19V261.214ZM161.519 262.048C161.262 261.582 160.918 261.239 160.501 260.993C160.084 260.748 159.631 260.625 159.152 260.625C158.674 260.625 158.22 260.748 157.804 260.981C157.387 261.214 157.043 261.57 156.786 262.024C156.528 262.478 156.393 263.017 156.393 263.643C156.393 264.268 156.528 264.82 156.786 265.286C157.043 265.765 157.387 266.12 157.804 266.366C158.22 266.611 158.674 266.734 159.152 266.734C159.631 266.734 160.084 266.611 160.501 266.366C160.918 266.12 161.262 265.765 161.519 265.299C161.777 264.832 161.911 264.281 161.911 263.655C161.911 263.029 161.777 262.49 161.519 262.024V262.048Z" fill="white"/>
<path d="M169.245 259.387C169.699 259.13 170.238 258.995 170.863 258.995V260.945H170.385C169.649 260.945 169.085 261.129 168.718 261.509C168.337 261.877 168.153 262.527 168.153 263.459V268.243H166.277V259.154H168.153V260.479C168.423 260.013 168.791 259.657 169.245 259.399V259.387Z" fill="white"/>
<path d="M183.836 257.474C184.756 257.94 185.467 258.614 185.957 259.485C186.46 260.356 186.705 261.374 186.705 262.539C186.705 263.704 186.46 264.71 185.957 265.569C185.455 266.427 184.743 267.077 183.836 267.543C182.929 268.009 181.849 268.23 180.636 268.23H176.896V256.774H180.636C181.862 256.774 182.929 257.007 183.836 257.474ZM183.713 265.605C184.425 264.882 184.78 263.864 184.78 262.539C184.78 261.214 184.425 260.172 183.713 259.424C183.002 258.676 181.972 258.308 180.636 258.308H178.772V266.697H180.636C181.972 266.697 183.002 266.329 183.713 265.605Z" fill="white"/>
<path d="M189.367 265.667C190.422 264.759 191.256 264.011 191.869 263.422C192.482 262.833 192.985 262.22 193.389 261.582C193.794 260.945 194.002 260.307 194.002 259.669C194.002 259.031 193.843 258.492 193.536 258.124C193.218 257.756 192.727 257.559 192.065 257.559C191.403 257.559 190.912 257.768 190.557 258.173C190.201 258.59 190.005 259.142 189.993 259.828H188.178C188.215 258.577 188.582 257.621 189.306 256.946C190.029 256.284 190.937 255.953 192.053 255.953C193.254 255.953 194.186 256.284 194.861 256.946C195.535 257.608 195.878 258.479 195.878 259.583C195.878 260.38 195.682 261.141 195.278 261.865C194.873 262.6 194.395 263.25 193.843 263.827C193.291 264.403 192.58 265.066 191.722 265.826L190.986 266.489H196.21V268.058H188.202V266.685L189.392 265.667H189.367Z" fill="white"/>
<path d="M198.233 259.461C198.76 258.565 199.459 257.879 200.354 257.376C201.249 256.873 202.23 256.627 203.297 256.627C204.511 256.627 205.602 256.922 206.546 257.523C207.491 258.124 208.19 258.97 208.619 260.074H206.362C206.068 259.473 205.651 259.019 205.124 258.725C204.597 258.43 203.984 258.283 203.297 258.283C202.537 258.283 201.862 258.455 201.274 258.798C200.685 259.142 200.219 259.632 199.876 260.27C199.545 260.908 199.373 261.644 199.373 262.49C199.373 263.337 199.545 264.073 199.876 264.71C200.207 265.348 200.673 265.839 201.274 266.182C201.874 266.526 202.549 266.697 203.297 266.697C203.984 266.697 204.597 266.55 205.124 266.256C205.651 265.961 206.068 265.508 206.362 264.907H208.619C208.19 266.01 207.503 266.857 206.546 267.445C205.59 268.034 204.511 268.341 203.297 268.341C202.218 268.341 201.237 268.096 200.342 267.593C199.447 267.09 198.748 266.403 198.22 265.508C197.693 264.612 197.436 263.606 197.436 262.49C197.436 261.374 197.693 260.368 198.22 259.473L198.233 259.461Z" fill="white"/>
<path d="M223.395 260.061C223.1 259.485 222.684 259.056 222.156 258.761C221.629 258.467 221.016 258.32 220.329 258.32C219.569 258.32 218.894 258.491 218.306 258.835C217.717 259.178 217.251 259.657 216.908 260.282C216.565 260.908 216.405 261.631 216.405 262.453C216.405 263.275 216.577 264.011 216.908 264.636C217.239 265.262 217.705 265.752 218.306 266.096C218.907 266.439 219.581 266.611 220.329 266.611C221.347 266.611 222.181 266.329 222.818 265.752C223.456 265.176 223.848 264.403 223.983 263.422H219.679V261.926H225.994V263.398C225.872 264.293 225.553 265.102 225.05 265.851C224.535 266.599 223.873 267.2 223.051 267.641C222.23 268.083 221.322 268.304 220.329 268.304C219.25 268.304 218.269 268.058 217.374 267.555C216.479 267.053 215.78 266.366 215.253 265.47C214.725 264.575 214.468 263.569 214.468 262.453C214.468 261.337 214.725 260.331 215.253 259.436C215.78 258.54 216.479 257.854 217.374 257.351C218.269 256.848 219.25 256.603 220.317 256.603C221.531 256.603 222.622 256.897 223.566 257.498C224.511 258.099 225.21 258.945 225.639 260.049H223.382L223.395 260.061Z" fill="white"/>
<path d="M230.813 259.387C231.267 259.13 231.806 258.995 232.432 258.995V260.945H231.954C231.218 260.945 230.654 261.129 230.286 261.509C229.906 261.877 229.722 262.527 229.722 263.459V268.243H227.846V259.154H229.722V260.479C229.992 260.013 230.359 259.657 230.813 259.399V259.387Z" fill="white"/>
<path d="M235.792 267.789C235.105 267.396 234.553 266.844 234.161 266.145C233.768 265.434 233.572 264.612 233.572 263.68C233.572 262.748 233.781 261.938 234.185 261.227C234.59 260.515 235.142 259.964 235.853 259.583C236.564 259.203 237.337 259.007 238.207 259.007C239.078 259.007 239.863 259.203 240.562 259.583C241.261 259.964 241.825 260.515 242.229 261.227C242.634 261.938 242.843 262.76 242.843 263.68C242.843 264.6 242.634 265.422 242.217 266.133C241.8 266.844 241.236 267.396 240.513 267.789C239.789 268.181 239.004 268.378 238.134 268.378C237.263 268.378 236.503 268.181 235.816 267.789H235.792ZM239.47 266.391C239.887 266.158 240.231 265.814 240.5 265.348C240.758 264.882 240.893 264.33 240.893 263.668C240.893 263.005 240.77 262.453 240.513 262C240.255 261.546 239.924 261.202 239.507 260.969C239.09 260.736 238.637 260.626 238.158 260.626C237.68 260.626 237.226 260.736 236.81 260.969C236.393 261.202 236.074 261.546 235.829 262C235.583 262.453 235.461 263.018 235.461 263.668C235.461 264.649 235.706 265.397 236.209 265.937C236.711 266.464 237.337 266.734 238.097 266.734C238.575 266.734 239.029 266.624 239.458 266.391H239.47Z" fill="white"/>
<path d="M256.882 259.142L254.062 268.23H252.088L250.261 261.521L248.434 268.23H246.46L243.627 259.142H245.54L247.441 266.439L249.366 259.142H251.328L253.179 266.415L255.055 259.142H256.895H256.882Z" fill="white"/>
<path d="M260.475 260.675V265.703C260.475 266.047 260.549 266.292 260.708 266.439C260.868 266.587 261.137 266.66 261.53 266.66H262.682V268.23H261.199C260.353 268.23 259.703 268.034 259.249 267.641C258.795 267.249 258.575 266.599 258.575 265.716V260.687H257.508V259.154H258.575V256.897H260.475V259.154H262.682V260.687H260.475V260.675Z" fill="white"/>
<path d="M270.96 259.436C271.5 259.73 271.929 260.172 272.248 260.761C272.554 261.337 272.714 262.049 272.714 262.87V268.23H270.85V263.153C270.85 262.343 270.641 261.717 270.237 261.276C269.832 260.847 269.28 260.626 268.569 260.626C267.858 260.626 267.306 260.847 266.901 261.276C266.497 261.705 266.288 262.331 266.288 263.153V268.23H264.412V256.026H266.288V260.197C266.607 259.816 267.012 259.51 267.502 259.301C267.993 259.093 268.52 258.995 269.109 258.995C269.795 258.995 270.421 259.142 270.96 259.436Z" fill="white"/>
</g>
<defs>
<linearGradient id="paint0_linear_776_1982" x1="305.626" y1="82.4356" x2="305.626" y2="642.482" gradientUnits="userSpaceOnUse">
<stop/>
<stop offset="1" stop-color="#69458C"/>
</linearGradient>
<linearGradient id="paint1_linear_776_1982" x1="283.247" y1="385.033" x2="345.245" y2="385.033" gradientUnits="userSpaceOnUse">
<stop stop-color="#F6D0C1"/>
<stop offset="0.47" stop-color="#EE8C6A"/>
<stop offset="1" stop-color="#C7A2F8"/>
</linearGradient>
<linearGradient id="paint2_linear_776_1982" x1="383.478" y1="323.314" x2="456.414" y2="323.314" gradientUnits="userSpaceOnUse">
<stop stop-color="#F6D0C1"/>
<stop offset="0.47" stop-color="#EE8C6A"/>
<stop offset="1" stop-color="#C7A2F8"/>
</linearGradient>
<linearGradient id="paint3_linear_776_1982" x1="179.19" y1="385.609" x2="230.458" y2="385.609" gradientUnits="userSpaceOnUse">
<stop stop-color="#F6D0C1"/>
<stop offset="0.47" stop-color="#EE8C6A"/>
<stop offset="1" stop-color="#C7A2F8"/>
</linearGradient>
<linearGradient id="paint4_linear_776_1982" x1="106.314" y1="117.857" x2="500.645" y2="117.857" gradientUnits="userSpaceOnUse">
<stop stop-color="#F6D0C1"/>
<stop offset="0.47" stop-color="#EE8C6A"/>
<stop offset="1" stop-color="#C7A2F8"/>
</linearGradient>
<clipPath id="clip0_776_1982">
<rect width="619" height="601" fill="white" transform="translate(0 0.540039)"/>
</clipPath>
</defs>
</svg>
